<?xml version="1.0" encoding="iso-8859-1"?>
<!-- Generator: Adobe Illustrator 19.0.0, SVG Export Plug-In . SVG Version: 6.00 Build 0)  -->
<svg version="1.1" id="Capa_1" xmlns="http://www.w3.org/2000/svg" xmlns:xlink="http://www.w3.org/1999/xlink" x="0px" y="0px"
	 viewBox="0 0 512 512" style="enable-background:new 0 0 512 512;" xml:space="preserve">
<g>
	<g>
		<rect y="482" width="294" height="30"/>
	</g>
</g>
<g>
	<g>
		<path d="M327,170c-52.383,0-95,42.617-95,95s42.617,95,95,95s95-42.617,95-95S379.383,170,327,170z M377,280h-65v-85h30v55h35V280
			z"/>
	</g>
</g>
<g>
	<g>
		<path d="M327,80c-102.009,0-185,82.99-185,185s82.991,185,185,185c102.01,0,185-82.99,185-185S429.01,80,327,80z M327,390
			c-68.925,0-125-56.075-125-125s56.075-125,125-125s125,56.075,125,125S395.925,390,327,390z"/>
	</g>
</g>
<g>
	<g>
		<path d="M327,0c-30.327,0-55,24.673-55,55c0,0.713,0.027,1.42,0.054,2.127c9.813-2.596,19.899-4.509,30.205-5.695
			C303.996,39.332,314.426,30,327,30c12.573,0,23.004,9.332,24.741,21.432c10.305,1.186,20.392,3.099,30.205,5.695
			C381.973,56.42,382,55.713,382,55C382,24.673,357.327,0,327,0z"/>
	</g>
</g>
<g>
	<g>
		<path d="M0,80v30h178.16c11.91-11.441,25.134-21.52,39.416-30H0z"/>
	</g>
</g>
<g>
	<g>
		<path d="M112,265c0-46.589,14.91-89.752,40.19-125H22v66c0,38.147,20.452,71.61,50.963,90C42.452,314.39,22,347.853,22,386v66
			h54.298c10.32-29.098,38.111-50,70.702-50c5.443,0,10.748,0.593,15.864,1.7C131.154,366.232,112,317.814,112,265z"/>
	</g>
</g>
<g>
	<g>
		<path d="M147,432c-15.566,0-29.3,7.952-37.381,20h74.762C176.3,439.952,162.566,432,147,432z"/>
	</g>
</g>
<g>
</g>
<g>
</g>
<g>
</g>
<g>
</g>
<g>
</g>
<g>
</g>
<g>
</g>
<g>
</g>
<g>
</g>
<g>
</g>
<g>
</g>
<g>
</g>
<g>
</g>
<g>
</g>
<g>
</g>
</svg>
